<?xml version="1.0" encoding="utf-8"?>
<!-- Generator: Adobe Illustrator 26.0.3, SVG Export Plug-In . SVG Version: 6.00 Build 0)  -->
<svg version="1.1" id="Layer_1" xmlns="http://www.w3.org/2000/svg" xmlns:xlink="http://www.w3.org/1999/xlink" x="0px" y="0px"
	 viewBox="0 0 116 84" style="enable-background:new 0 0 116 84;" xml:space="preserve">
<style type="text/css">
	.st0{fill:none;}
	.st1{fill:#0F1A65;}
	.st2{fill:url(#SVGID_1_);}
	.st3{fill:url(#SVGID_00000183939295249536692210000007344734911180346496_);}
	.st4{fill:url(#SVGID_00000114050754745031676170000006335814711582572930_);}
	.st5{fill:url(#SVGID_00000000210506873791489950000017503167842787528352_);}
	.st6{fill:url(#SVGID_00000131368067404826201800000001774185330662770579_);}
	.st7{fill:url(#SVGID_00000062165260817071430440000011902102409389799092_);}
</style>
<g id="Back">
</g>
<g id="Logo">
	<g>
		<rect x="-1.9" y="-1" class="st0" width="119.9" height="84.7"/>
		<g>
			<path class="st1" d="M29.1,69.4h3.7V55.3h-3.7V69.4z M23.2,55.3l-3.4,6.2l-3.4-6.2h-3.6l-0.7,14.1h3.6l0.3-8.3l2.7,4.8h2.1
				l2.5-4.8l0.3,8.3h3.8l-0.7-14.1C26.7,55.3,23.2,55.3,23.2,55.3z M38.5,55.3h-3.7v14.1h9.9v-3.3h-6.2
				C38.5,66.1,38.5,55.3,38.5,55.3z M96.9,58.8c0-0.6,0.4-0.9,1.3-0.9c1,0,2.5,0.6,3.4,1.3l1.9-2.5c-1.4-1.1-3.3-1.7-5.2-1.7
				c-3.9,0-5.5,2.2-5.5,4.3c0,4.4,6.7,4.3,6.7,6.1c0,0.7-0.8,1.1-1.6,1.1c-1.3,0-2.7-0.7-3.6-1.6l-2.2,2.7c1.3,1.2,3.3,2.1,5.9,2.1
				c3.3,0,5.7-2.3,5.7-4.7C103.8,60.5,96.9,60.8,96.9,58.8z M70.1,54.9c-4.5,0-7.3,3.3-7.3,7.4c0,4,2.7,7.4,7.3,7.4
				c4.5,0,7.3-3.6,7.3-7.4C77.4,58.3,74.5,54.9,70.1,54.9z M70.1,66.3c-2,0-3.5-1.5-3.5-3.9s1.4-3.9,3.5-3.9c2.3,0,3.5,1.9,3.5,3.9
				C73.5,64.7,72.1,66.3,70.1,66.3z M87.6,63.2l-5.4-7.9h-3.4v14.1h3.7v-8.1l5.6,8.1h3.2V55.3h-3.7C87.6,55.3,87.6,63.2,87.6,63.2z
				 M49.8,55.3h-3.7v14.1H56v-3.3h-6.2V55.3z M57.4,69.4h3.7V55.3h-3.7V69.4z M77.2,53.8c4.5,0,7.3-3.6,7.3-7.4c0-4-2.9-7.4-7.3-7.4
				c-4.5,0-7.3,3.3-7.3,7.4C69.9,50.3,72.5,53.8,77.2,53.8z M77.2,42.4c2.3,0,3.5,1.9,3.5,3.9c0,2.4-1.4,3.9-3.5,3.9
				c-2,0-3.5-1.5-3.5-3.9C73.7,44,75.2,42.4,77.2,42.4z M55.8,47.9v-8.6H52v8.3c0,1.6-0.7,2.6-2.3,2.6c-1.7,0-2.3-1.1-2.3-2.6v-8.3
				h-3.7v8.6c0,3.1,1.9,5.9,6.1,5.9C54.1,53.8,55.8,50.6,55.8,47.9z M61.1,48.6h2.2l2.4,4.8h4l-3-5.4c1.4-0.8,2.2-2.1,2.2-4.1
				c0-2.5-1.5-4.6-5-4.6h-6.4v14.1h3.7L61.1,48.6L61.1,48.6z M61.1,42.3h2.4c1.1,0,1.7,0.6,1.7,1.7c0,1-0.6,1.7-1.7,1.7h-2.4V42.3z
				 M42.5,50.2h-6.9v-2.4h5.3v-3h-5.3v-2.2H42v-3.2H31.9v14.1h10.6V50.2z"/>
			<g>
				<g>
					
						<linearGradient id="SVGID_1_" gradientUnits="userSpaceOnUse" x1="626.9933" y1="-1096.6399" x2="651.8271" y2="-1115.3535" gradientTransform="matrix(0.9063 -0.4226 -0.4226 -0.9063 -957.2864 -703.9215)">
						<stop  offset="0" style="stop-color:#9B834F"/>
						<stop  offset="0.17" style="stop-color:#B09754"/>
						<stop  offset="0.38" style="stop-color:#BEA458"/>
						<stop  offset="0.6" style="stop-color:#D3BC5F"/>
						<stop  offset="0.8003" style="stop-color:#DCC764"/>
						<stop  offset="1" style="stop-color:#E8D366"/>
					</linearGradient>
					<path class="st2" d="M93.2,33.8c-0.4,0-1,0.2-1.2,0.6l-5.3,7.1c-0.3,0.3-0.6,0.3-0.7-0.1l-2.3-8.6c-0.1-0.4-0.5-0.9-0.9-1
						l-8.4-2.9c-0.4-0.1-0.4-0.4-0.1-0.7l7.5-4.8c0.4-0.2,0.7-0.8,0.7-1.2l0.1-8.9c0-0.4,0.3-0.6,0.6-0.3l6.9,5.7
						c0.3,0.3,0.9,0.4,1.3,0.3l8.5-2.7c0.4-0.1,0.6,0.1,0.5,0.5l-3.2,8.3c-0.2,0.4-0.1,1,0.2,1.4l5.1,7.2c0.2,0.3,0.1,0.6-0.3,0.6
						L93.2,33.8z"/>
					
						<linearGradient id="SVGID_00000036956059875252086940000004119444203653844137_" gradientUnits="userSpaceOnUse" x1="617.9627" y1="-1086.146" x2="627.5855" y2="-1093.3517" gradientTransform="matrix(0.9063 -0.4226 -0.4226 -0.9063 -957.2864 -703.9215)">
						<stop  offset="0" style="stop-color:#A28952"/>
						<stop  offset="0.2" style="stop-color:#B09754"/>
						<stop  offset="0.48" style="stop-color:#C2AA5B"/>
						<stop  offset="0.72" style="stop-color:#DCC764"/>
						<stop  offset="1" style="stop-color:#E8D366"/>
					</linearGradient>
					<path style="fill:url(#SVGID_00000036956059875252086940000004119444203653844137_);" d="M69.1,22.8c-0.2,0-0.4,0.1-0.5,0.2
						l-2.1,2.8c-0.1,0.1-0.2,0.1-0.3-0.1l-0.9-3.4c0-0.2-0.2-0.3-0.4-0.4l-3.3-1.1c-0.2-0.1-0.2-0.2,0-0.3l2.9-1.9
						c0.1-0.1,0.3-0.3,0.3-0.5v-3.5c0-0.2,0.1-0.2,0.2-0.1l2.7,2.3c0.1,0.1,0.4,0.2,0.5,0.1l3.3-1.1c0.2-0.1,0.2,0,0.2,0.2l-1.2,3.3
						c-0.1,0.2,0,0.4,0.1,0.5l2,2.9c0.1,0.1,0,0.2-0.1,0.2L69.1,22.8z"/>
					
						<linearGradient id="SVGID_00000178206902018122375330000004599596515447355022_" gradientUnits="userSpaceOnUse" x1="615.3038" y1="-1099.9253" x2="620.8304" y2="-1104.0637" gradientTransform="matrix(0.9063 -0.4226 -0.4226 -0.9063 -957.2864 -703.9215)">
						<stop  offset="0" style="stop-color:#A28952"/>
						<stop  offset="0.2" style="stop-color:#B09754"/>
						<stop  offset="0.48" style="stop-color:#C2AA5B"/>
						<stop  offset="0.72" style="stop-color:#DCC764"/>
						<stop  offset="1" style="stop-color:#E8D366"/>
					</linearGradient>
					<path style="fill:url(#SVGID_00000178206902018122375330000004599596515447355022_);" d="M69.4,35c-0.1,0-0.2,0.1-0.3,0.1
						l-1.2,1.6c-0.1,0.1-0.1,0.1-0.1,0l-0.5-2c0-0.1-0.1-0.2-0.2-0.2l-1.9-0.7c-0.1,0-0.1-0.1,0-0.2l1.7-1.1
						c0.1-0.1,0.1-0.2,0.1-0.3v-2.1c0-0.1,0.1-0.1,0.1-0.1l1.5,1.3c0.1,0.1,0.2,0.1,0.3,0.1l1.9-0.6c0.1,0,0.1,0,0.1,0.1L70.2,33
						c0,0.1,0,0.2,0,0.3l1.1,1.7c0.1,0.1,0,0.1-0.1,0.1L69.4,35z"/>
					
						<linearGradient id="SVGID_00000039104842945304468250000005997201626612123288_" gradientUnits="userSpaceOnUse" x1="601.5046" y1="-1091.1973" x2="607.2281" y2="-1095.4833" gradientTransform="matrix(0.9063 -0.4226 -0.4226 -0.9063 -957.2864 -703.9215)">
						<stop  offset="0" style="stop-color:#A28952"/>
						<stop  offset="0.2" style="stop-color:#B09754"/>
						<stop  offset="0.48" style="stop-color:#C2AA5B"/>
						<stop  offset="0.72" style="stop-color:#DCC764"/>
						<stop  offset="1" style="stop-color:#E8D366"/>
					</linearGradient>
					<path style="fill:url(#SVGID_00000039104842945304468250000005997201626612123288_);" d="M53.4,32.9c-0.1,0-0.2,0.1-0.3,0.1
						l-1.2,1.7c-0.1,0.1-0.1,0.1-0.2,0l-0.5-2.1c0-0.1-0.1-0.2-0.2-0.2l-2-0.7c-0.1,0-0.1-0.1,0-0.2l1.7-1.1
						c0.1-0.1,0.2-0.2,0.2-0.3V28c0-0.1,0.1-0.1,0.1-0.1l1.6,1.4c0.1,0.1,0.2,0.1,0.3,0.1l1.9-0.6c0.1,0,0.1,0,0.1,0.1l-0.7,2
						c0,0.1,0,0.2,0,0.3l1.2,1.7c0.1,0.1,0,0.1-0.1,0.1L53.4,32.9z"/>
					
						<linearGradient id="SVGID_00000028312882370239840190000004339873231479521971_" gradientUnits="userSpaceOnUse" x1="611.3306" y1="-1092.0231" x2="615.1656" y2="-1094.8948" gradientTransform="matrix(0.9063 -0.4226 -0.4226 -0.9063 -957.2864 -703.9215)">
						<stop  offset="0" style="stop-color:#A28952"/>
						<stop  offset="0.2" style="stop-color:#B09754"/>
						<stop  offset="0.48" style="stop-color:#C2AA5B"/>
						<stop  offset="0.72" style="stop-color:#DCC764"/>
						<stop  offset="1" style="stop-color:#E8D366"/>
					</linearGradient>
					<path style="fill:url(#SVGID_00000028312882370239840190000004339873231479521971_);" d="M61.2,28.8c-0.1,0-0.2,0-0.2,0.1
						l-0.8,1.2c0,0.1-0.1,0-0.1,0l-0.3-1.4c0-0.1-0.1-0.1-0.1-0.2L58.4,28c-0.1,0-0.1-0.1,0-0.1l1.2-0.8c0.1,0,0.1-0.1,0.1-0.2v-1.4
						c0-0.1,0-0.1,0.1,0l1.1,0.9c0.1,0,0.1,0.1,0.2,0l1.3-0.4c0.1,0,0.1,0,0.1,0.1L62,27.4c0,0.1,0,0.2,0,0.2l0.8,1.2
						c0,0.1,0,0.1-0.1,0.1L61.2,28.8z"/>
					
						<linearGradient id="SVGID_00000168077598006804438980000014662166050361853615_" gradientUnits="userSpaceOnUse" x1="597.2573" y1="-1084.3271" x2="600.7357" y2="-1086.9318" gradientTransform="matrix(0.9063 -0.4226 -0.4226 -0.9063 -957.2864 -703.9215)">
						<stop  offset="0" style="stop-color:#A28952"/>
						<stop  offset="0.2" style="stop-color:#B09754"/>
						<stop  offset="0.48" style="stop-color:#C2AA5B"/>
						<stop  offset="0.72" style="stop-color:#DCC764"/>
						<stop  offset="1" style="stop-color:#E8D366"/>
					</linearGradient>
					<path style="fill:url(#SVGID_00000168077598006804438980000014662166050361853615_);" d="M44.9,27.7c-0.1,0-0.1,0-0.2,0.1
						l-0.7,1c0,0.1-0.1,0-0.1,0l-0.3-1.3c0-0.1-0.1-0.1-0.1-0.1L42.3,27c-0.1,0-0.1-0.1,0-0.1l1-0.7c0.1,0,0.1-0.1,0.1-0.2v-1.3
						c0-0.1,0-0.1,0.1,0l1,0.8c0,0,0.1,0.1,0.2,0l1.2-0.4c0.1,0,0.1,0,0.1,0.1l-0.5,1.2c0,0.1,0,0.1,0,0.2l0.7,1.1
						c0,0.1,0,0.1,0,0.1L44.9,27.7z"/>
				</g>
			</g>
		</g>
	</g>
</g>
</svg>
